<svg width="17" height="12" viewBox="0 0 17 12" fill="none" xmlns="http://www.w3.org/2000/svg">
<path fill-rule="evenodd" clip-rule="evenodd" d="M8.58772 11.2007L16.2364 2.36935C16.2981 2.29817 16.329 2.20532 16.322 2.11134C16.3151 2.01737 16.2711 1.93002 16.1996 1.86865L14.9078 0.764546C14.8363 0.70336 14.7434 0.673152 14.6496 0.680593C14.5557 0.688034 14.4687 0.732512 14.4078 0.804206L8.45882 7.80982C8.42532 7.84962 8.37594 7.8726 8.32391 7.8726C8.27188 7.8726 8.2225 7.84962 8.189 7.80982L2.24003 0.804205C2.17895 0.73102 2.09094 0.685554 1.9959 0.67809C1.90087 0.670626 1.80684 0.701794 1.73508 0.764545L0.446846 1.86864C0.37525 1.92992 0.331035 2.01722 0.32399 2.11119C0.316945 2.20517 0.347651 2.29808 0.409311 2.36935L8.05231 11.2007C8.11957 11.2784 8.21726 11.323 8.32001 11.323C8.42277 11.323 8.52046 11.2784 8.58772 11.2007Z" fill="#FFFFFF"/>
</svg>
