<?xml version="1.0" encoding="UTF-8"?>
<svg width="306px" height="100px" viewBox="0 0 306 100" version="1.1" xmlns="http://www.w3.org/2000/svg" xmlns:xlink="http://www.w3.org/1999/xlink">
    <!-- Generator: Sketch 57.1 (83088) - https://sketch.com -->
    <title>Group 56</title>
    <desc>Created with Sketch.</desc>
    <defs>
        <polygon id="path-1" points="0 0.140255914 99.2165699 0.140255914 99.2165699 99.3548387 0 99.3548387"></polygon>
    </defs>
    <g id="Symbols" stroke="none" stroke-width="1" fill="none" fill-rule="evenodd">
        <g id="NJ-/-horz-black-Copy" transform="translate(-41.000000, -60.000000)">
            <g id="Group-56" transform="translate(41.000000, 60.000000)">
                <g id="Group-3">
                    <mask id="mask-2" fill="white">
                        <use xlink:href="#path-1"></use>
                    </mask>
                    <g id="Clip-2"></g>
                    <path d="M49.607871,0.140255914 C22.253,0.140255914 0,22.392428 0,49.7489548 C0,77.1029978 22.253,99.3551699 49.607871,99.3551699 C76.961086,99.3551699 99.2165699,77.1029978 99.2165699,49.7489548 C99.2165699,22.392428 76.961086,0.140255914 49.607871,0.140255914" id="Fill-1" fill="#FDDD7F" mask="url(#mask-2)"></path>
                </g>
                <path d="M49.3552515,4.51612903 C24.9868965,4.51612903 5.16129032,24.4570182 5.16129032,48.9652205 L5.16129032,96.7741935 L19.8183019,82.0317372 C27.9320047,89.3784679 38.3864369,93.4151423 49.3552515,93.4151423 C73.7227809,93.4151423 93.5483871,73.4750836 93.5483871,48.9652205 C93.5483871,24.4570182 73.7227809,4.51612903 49.3552515,4.51612903" id="Fill-4" fill="#FEFEFE"></path>
                <path d="M49.3548387,9.03225806 C27.1204451,9.03225806 9.03225806,27.1220953 9.03225806,49.3564889 L9.03225806,87.5865761 L19.7950677,76.8237665 L20.8404893,77.8675379 C28.4571326,85.4833561 38.5829528,89.6774194 49.3548387,89.6774194 C71.5892323,89.6774194 89.6774194,71.5892323 89.6774194,49.3564889 C89.6774194,27.1220953 71.5892323,9.03225806 49.3548387,9.03225806" id="Fill-6" fill="#1F406F"></path>
                <path d="M108.413703,41.0630978 C108.355957,41.167646 108.409578,43.6103439 108.413703,44.7409224 L305.806452,49.0322581 L305.806452,36.7741935 L108.413703,41.0630978 Z" id="Fill-8" fill="#FDDD7F"></path>
                <path d="M46.0254398,53.9305438 L32.4057936,53.9305438 L32.4057936,65.1612903 L25.9930436,65.1612903 L25.9930436,39.7739099 L25.6404525,39.7739099 L23.8709677,33.5483871 L46.0254398,33.5483871 C47.6602544,33.5483871 49.0322581,34.857753 49.0322581,36.4326546 L49.0322581,51.045444 C49.0322581,52.6677924 47.6602544,53.9305438 46.0254398,53.9305438 L46.0254398,53.9305438 Z M42.6219566,39.7739099 L32.3609036,39.7739099 L32.3609036,47.7533003 L42.5770665,47.7533003 L42.6219566,39.7739099 Z" id="Fill-10" fill="#FDDD7F"></path>
                <path d="M68.854594,65.1612903 L68.854594,58.2169393 L58.2886037,58.2169393 L58.2886037,65.1612903 L51.6129032,65.1612903 L51.6129032,51.7670081 L51.7994413,50.8206187 L56.3700467,39.1867706 L54.9039079,33.5483871 L68.3025763,33.5483871 L75.2998651,50.8206187 L75.483871,51.7670081 L75.483871,65.1612903 L68.854594,65.1612903 Z M63.8687093,39.7719173 L63.228909,39.7719173 L58.4278742,51.9934091 L68.6714322,51.9934091 L63.8687093,39.7719173 Z" id="Fill-12" fill="#FDDD7F"></path>
                <path d="M124.553043,19.8653212 L113.02774,19.8653212 L113.02774,29.0322581 L107.600617,29.0322581 L107.600617,8.30725702 L107.304757,8.30725702 L105.806452,3.22580645 L124.553043,3.22580645 C125.934823,3.22580645 127.096774,4.29413062 127.096774,5.58034739 L127.096774,17.5075282 C127.096774,18.8327705 125.934823,19.8653212 124.553043,19.8653212 L124.553043,19.8653212 Z M121.673783,8.30725702 L112.989725,8.30725702 L112.989725,14.8220832 L121.634115,14.8220832 L121.673783,8.30725702 Z" id="Fill-14" fill="#FFFFFF"></path>
                <path d="M132.117364,29.0322581 L132.117364,18.0994155 L131.185266,18.0994155 L131.185266,13.0903248 L132.117364,13.0903248 L132.117364,8.30644399 L131.819886,8.30644399 L130.322581,3.22580645 C137.994203,3.22580645 143.381031,3.26157986 151.612903,3.26157986 L151.612903,8.30644399 L137.505844,8.30644399 L137.505844,13.0903248 L147.496967,13.0903248 L147.496967,18.136002 L137.505844,18.136002 L137.505844,23.9524336 L146.148401,23.9524336 L146.148401,20.8962459 L151.612903,20.8962459 L151.612903,29.0322581 L132.117364,29.0322581 Z" id="Fill-16" fill="#FFFFFF"></path>
                <path d="M166.054904,29.0322581 L161.189288,10.8813166 L161.189288,29.0322581 L155.677162,29.0322581 L155.677162,8.30644399 L155.52687,8.30644399 L154.193548,3.22580645 L164.609912,3.22580645 L170.349576,23.2906254 C169.971745,19.6474286 169.933123,3.22580645 169.933123,3.22580645 L175.483871,3.22580645 L175.483871,29.0322581 L166.054904,29.0322581 Z" id="Fill-18" fill="#FFFFFF"></path>
                <path d="M191.217969,29.0322581 L186.35197,10.8813166 L186.35197,29.0322581 L180.836051,29.0322581 L180.836051,8.30644399 L180.682388,8.30644399 L179.354839,3.22580645 L189.770345,3.22580645 L195.51382,23.2906254 C195.130922,19.6474286 195.093975,3.22580645 195.093975,3.22580645 L200.645161,3.22580645 L200.645161,29.0322581 L191.217969,29.0322581 Z" id="Fill-20" fill="#FFFFFF"></path>
                <polygon id="Fill-22" fill="#FFFFFF" points="212.416437 30.3225806 212.416437 6.81646566 211.894582 6.81646566 210.967742 3.22580645 216.786871 3.2613743 216.786871 6.81646566 215.748842 6.81646566 215.748842 26.7302277 226.345826 26.7302277 226.345826 23.2869211 229.677419 23.2869211 229.677419 30.3225806"></polygon>
                <polygon id="Fill-24" fill="#FFFFFF" points="240.404555 30.3225806 240.404555 26.7666424 241.44229 26.7666424 241.44229 6.81646566 240.926665 6.81646566 240 3.22580645 245.806452 3.2613743 245.806452 6.81646566 244.774392 6.81646566 244.774392 26.7302277 245.806452 26.7666424 245.806452 30.3225806"></polygon>
                <polygon id="Fill-26" fill="#FFFFFF" points="275.368378 15.1325679 269.939342 30.3225806 263.156656 30.3225806 257.535697 15.1325679 257.419355 14.4364542 257.419355 3.22580645 260.909631 3.22580645 260.909631 14.1688485 265.401982 26.7302277 267.496148 26.7302277 271.996142 14.1688485 271.996142 3.22580645 275.483871 3.22580645 275.483871 14.4364542"></polygon>
                <path d="M287.897125,30.3225806 L287.897125,17.9161756 L287.005956,17.9161756 L287.005956,14.3966521 L287.897125,14.3966521 L287.897125,6.81646566 L287.378494,6.81646566 L286.451613,3.22580645 C292.861049,3.22580645 298.049795,3.2613743 305.16129,3.2613743 L305.16129,6.81646566 L291.231298,6.81646566 L291.231298,14.3966521 L301.086911,14.3966521 L301.086911,17.9525903 L291.231298,17.9525903 L291.231298,26.7302277 L301.827117,26.7302277 L301.827117,23.2869211 L305.16129,23.2869211 L305.16129,30.3225806 L287.897125,30.3225806 Z" id="Fill-28" fill="#FFFFFF"></path>
                <path d="M212.258065,83.9269381 C210.82548,85.1162856 209.482061,86.3163703 207.933987,87.7419355 C205.880644,86.3163703 204.125367,85.1947495 202.301306,83.9963167 L202.301306,83.9269381 C202.695331,83.7320172 202.896589,83.3826464 202.896589,82.2246844 L202.896589,67.1777862 L200,67.1777862 L201.348514,64.7454053 L202.896589,64.7454053 L202.896589,60.7016237 L208.052873,57.4193548 L208.052873,64.7454053 L212.211359,64.7454053 L210.908701,67.141445 L208.052873,67.141445 L208.052873,81.4953831 C208.052873,82.3031483 208.251584,82.6128742 209.242589,83.2265445 C210.083288,83.7386247 210.670928,83.9269381 211.111657,83.9269381 C211.412271,83.9269381 211.66448,83.7857031 211.945562,83.5362704 L212.258065,83.9269381 Z" id="Fill-30" fill="#FFFFFF"></path>
                <path d="M181.290323,58.4961991 L177.897471,61.2903226 C176.958343,60.2308086 175.395793,58.7514278 174.83871,58.3063531 L178.264331,55.483871 C179.089965,56.2550711 180.24809,57.4737091 181.290323,58.4961991" id="Fill-32" fill="#FFFFFF"></path>
                <path d="M183.225806,84.2371038 C181.910736,85.4612674 180.509937,86.800012 179.533622,87.7419355 C178.365873,86.914593 176.584701,85.7713102 175.491861,85.1006741 L175.491861,85.0214784 C175.880556,84.7923163 176.081978,84.3558974 176.081978,82.6616146 L176.081978,70.1899744 C176.081978,68.1115081 175.258811,67.0027681 174.364896,67.0027681 C174.168468,67.0027681 174.016153,67.0651136 173.821389,67.2403552 L173.548387,66.9202023 L177.122382,63.2258065 C180.115415,64.3252789 181.125023,65.6623385 181.125023,69.0492191 L181.125023,82.7012124 C181.125023,83.2951803 181.282332,83.5310824 181.910736,83.9624463 C182.070542,84.0795549 182.259479,84.1183102 182.490865,84.1183102 C182.703108,84.1183102 182.914518,83.8832506 182.914518,83.8832506 L183.225806,84.2371038 Z" id="Fill-34" fill="#FFFFFF"></path>
                <path d="M172.2555,66.5647789 L169.005989,70.9729302 L168.707992,70.7833595 C168.856595,70.426124 168.932477,70.0722586 168.932477,69.7124955 C168.932477,68.5809689 168.226612,67.4705057 167.083631,67.4705057 C166.863098,67.4705057 166.679715,67.4705057 166.425983,67.5109474 L165.864768,68.2641751 L165.864768,81.0134385 C165.864768,82.3522291 166.015743,82.5417998 167.345268,83.3733834 C167.84799,83.6918622 168.236888,83.8190852 168.66926,83.8039196 C169.005989,83.790439 169.196485,83.6202466 169.413067,83.4517393 L169.782204,83.8502591 C168.334112,85.1443952 167.264643,86.2051488 165.752525,87.7419355 C163.69184,86.2051488 162.248491,85.1443952 160.510307,83.9210322 L160.510307,83.8502591 C160.921337,83.6084511 161.063617,83.1357881 161.063617,82.1921471 L161.063617,69.8708924 C161.063617,68.340846 160.401226,67.0020553 159.444789,67.0020553 C159.262197,67.0020553 159.0717,67.1048448 158.923097,67.2413357 L158.709677,66.8866278 C159.65979,65.8621034 161.103139,64.2848749 162.066689,63.2258065 C163.910002,63.8543387 165.201586,65.3144546 165.607874,67.673557 L169.077129,63.2258065 C170.778162,63.2258065 172.329802,64.3691286 172.2555,66.5647789" id="Fill-36" fill="#FFFFFF"></path>
                <path d="M159.354839,83.9269381 C157.930055,85.1162856 156.580887,86.3163703 155.038858,87.7419355 C152.966678,86.3163703 151.216497,85.1947495 149.401746,83.9963167 L149.401746,83.9269381 C149.794262,83.7320172 149.992219,83.3826464 149.992219,82.2246844 L149.992219,67.1777862 L147.096774,67.1777862 L148.440845,64.7454053 L149.992219,64.7454053 L149.992219,60.7016237 L155.154404,57.4193548 L155.154404,64.7454053 L159.317456,64.7454053 L158.013316,67.141445 L155.154404,67.141445 L155.154404,81.4953831 C155.154404,82.3031483 155.348963,82.6128742 156.341299,83.2265445 C157.174759,83.7386247 157.77118,83.9269381 158.206176,83.9269381 C158.514582,83.9269381 158.771162,83.812133 159.039636,83.6122565 L159.354839,83.9269381 Z" id="Fill-38" fill="#FFFFFF"></path>
                <path d="M199.354839,82.3061717 C197.119919,83.6922872 193.746246,86.0086591 191.513881,87.7419355 C184.988835,85.0623929 184.516129,84.3175138 184.516129,80.6638986 L184.516129,67.9470256 C187.345551,66.3713198 190.008036,64.6801745 192.037691,63.2258065 C197.285153,64.9211648 199.354839,66.2154344 199.354839,69.673561 L199.354839,82.3061717 Z M194.219804,83.9990022 L194.219804,70.9720437 C194.219804,69.0870951 193.313571,68.1779044 189.686936,66.6409593 L189.607726,66.7252216 L189.607726,79.9923277 C189.607726,81.6817877 190.203932,82.2303356 194.145704,84.0394481 L194.219804,83.9990022 Z" id="Fill-40" fill="#FFFFFF"></path>
                <path d="M147.096774,83.8993479 C146.007079,85.0332262 144.4595,86.6853289 143.474163,87.7419355 C141.582769,86.9205036 139.883102,85.6211631 139.579735,83.4273185 L134.410355,87.7419355 L134.332693,87.7419355 C132.134695,86.4476344 130.322581,84.0925271 130.322581,81.344342 C130.322581,78.7977353 131.358884,76.2645672 136.067954,74.0967598 L139.468905,72.5236087 L139.468905,69.2278023 C138.224694,68.6465847 136.669026,67.9738169 136.669026,67.9738169 C136.042067,67.6890875 135.426433,67.5387436 134.932147,67.5387436 C134.44595,67.5387436 133.488927,68.5239579 133.234907,68.9103164 L132.633836,68.4466862 C133.95409,66.9550062 135.915866,64.636855 137.129336,63.2258065 C139.883102,64.4025202 142.298716,65.3877344 144.987764,66.4443411 L144.987764,66.5585688 C144.568713,66.8718552 144.344625,67.264933 144.344625,68.801968 L144.344625,81.9751144 C144.344625,82.8419013 144.568713,83.0745564 145.020932,83.3912024 C145.547578,83.7532035 145.880069,83.8724707 146.155931,83.8682712 C146.388917,83.851473 146.608959,83.749004 146.79907,83.5877413 L147.096774,83.8993479 Z M139.468905,82.6436826 L139.468905,73.4609481 L137.392254,74.5696291 C135.989483,75.296991 134.973405,77.2699393 134.973405,79.6233667 C134.973405,82.0918618 135.727374,83.3912024 137.278188,84.4898045 L139.468905,82.6436826 Z" id="Fill-42" fill="#FFFFFF"></path>
                <path d="M128.387097,81.9408365 C126.447137,83.2132836 123.176412,85.60512 121.040429,87.273035 C119.421543,86.2289334 116.939138,85.3751198 114.846246,85.3751198 L114.846246,95.1120699 L112.916425,93.6443709 C112.916425,93.6443709 110.504994,95.8881137 109.440382,96.7741935 L109.440382,85.4131774 C107.551963,85.5711991 106.055592,85.8789691 104.855791,87.273035 L104.516129,87.0819197 C105.729449,84.6007307 106.757729,82.831053 107.228355,81.820045 C107.785164,81.4378145 108.610661,81.1308718 109.440382,80.9323105 L109.440382,62.3502815 C109.440382,60.1454236 108.37408,59.0980127 107.228355,59.0980127 C106.325125,59.0980127 105.910264,59.4289482 105.260513,60.1032293 L104.745105,59.7201715 C105.89083,58.1722206 108.25579,55.0457073 108.930044,54.1935484 C112.281882,54.4665702 114.846246,56.4786581 114.846246,59.6076534 L114.846246,59.9104594 C117.332875,58.0166809 118.792914,56.8592339 121.558371,54.5435127 C126.568807,55.8614634 128.387097,58.8721492 128.387097,63.7319372 L128.387097,81.9408365 Z M122.857874,82.7532832 L122.857874,64.7445999 C122.857874,60.9942732 121.363192,58.9110341 118.045151,58.2524725 L114.846246,60.7229061 L114.846246,80.5517347 C117.726613,80.5840009 120.768361,81.3790735 122.857874,82.7532832 L122.857874,82.7532832 Z" id="Fill-44" fill="#FFFFFF"></path>
                <path d="M305.806452,83.8184143 C303.652715,84.6808835 300.924593,86.0976173 298.767512,87.7419355 C297.990796,87.0684201 296.591202,86.565383 295.293609,86.565383 C293.225988,86.565383 292.261154,86.9936783 291.192647,87.7419355 L290.967742,87.5454235 C292.057987,84.4843715 293.735996,82.5226109 296.820287,82.5226109 C298.61451,82.5226109 299.629508,83.1188652 300.725607,84.0518772 L300.766574,84.0107273 L300.766574,80.64399 C300.766574,79.1491553 300.167943,78.3018024 298.767512,77.7047083 C297.760038,77.2688548 296.784336,76.8271227 295.918995,76.4458559 C292.838048,75.0736312 291.820541,74.0087714 291.820541,71.3491414 L291.820541,67.6574035 C294.01441,66.5606315 296.743368,64.839892 298.61451,63.2258065 C299.4138,64.1294256 300.563407,64.8760032 301.975543,64.8760032 C303.575796,64.8760032 304.472071,64.4216742 305.179393,63.8900841 L305.410987,64.0504849 C304.434448,66.6017815 302.988033,68.6055318 300.368601,68.6055318 C299.003286,68.6055318 297.990796,68.0898978 296.903895,67.0670278 L296.862927,67.1081777 L296.862927,69.6141253 C296.862927,71.1056009 297.178964,71.6909378 298.422212,72.2502412 C299.338553,72.6575416 299.866118,72.9170382 300.96138,73.3864835 C304.434448,74.8838376 305.806452,75.5489551 305.806452,79.1491553 L305.806452,83.8184143 Z" id="Fill-46" fill="#FFFFFF"></path>
                <path d="M289.677419,65.9368056 C289.288214,66.176978 289.029021,66.581479 289.029021,68.0663346 L289.029021,82.4286468 C286.690455,83.815748 283.773497,86.0539867 281.679121,87.7419355 C278.870507,86.4846117 277.820403,86.0084803 275.05846,84.9458226 C273.696658,85.9360072 273.184107,86.3649468 271.588947,87.7419355 C267.931082,85.9697157 266.223412,85.1851523 263.80317,84.1604166 L263.80317,84.0786737 C264.274884,83.8452429 264.509907,83.6379362 264.509907,81.9145935 L264.509907,70.2270439 C264.509907,68.1396504 263.653989,67.0803635 262.756399,67.0803635 C262.562213,67.0803635 262.445535,67.1351397 262.249682,67.3137943 L261.935484,66.9573278 L265.556679,63.2612003 C268.560312,64.3626227 269.534576,65.7008467 269.534576,69.0876995 L269.534576,81.7915578 C270.928048,82.5044908 272.058994,83.0193868 274.161704,83.8452429 L274.238378,83.7668708 L274.238378,68.2610007 C274.238378,67.6635191 274.130034,67.5034041 273.499971,67.0803635 C273.309952,66.9522715 273.069928,66.8444046 272.835738,66.8444046 C272.722394,66.8444046 272.57988,66.8444046 272.4457,66.9573278 L272.220677,66.601704 C273.229944,65.6603966 274.945116,64.1258211 275.909379,63.2258065 C277.119499,64.0870564 278.811335,65.2322998 279.90311,65.8559054 L279.90311,65.9368056 C279.515572,66.176978 279.26388,66.57558 279.26388,68.0663346 L279.26388,82.3494321 C280.779865,83.0969161 281.946648,83.4146179 283.813501,84.0786737 L283.891842,84.0390663 L283.891842,68.2610007 C283.891842,67.6635191 283.744327,67.4275602 283.115931,66.9986206 C282.927579,66.8747422 282.688388,66.7626617 282.455032,66.7626617 C282.33502,66.7626617 282.179171,66.7458075 282.059992,66.8789557 L281.756629,66.5191184 C282.765896,65.5820245 284.633583,64.1258211 285.607847,63.2258065 C286.812133,64.0870564 288.578976,65.2322998 289.677419,65.8559054 L289.677419,65.9368056 Z" id="Fill-48" fill="#FFFFFF"></path>
                <path d="M250.322581,56.0941806 C249.861163,58.1390825 248.480204,60.3363592 245.588102,60.5924785 L245.588102,82.741125 C246.002554,83.0426325 246.322251,83.1561031 246.631236,83.1585346 C247.009434,83.1666396 247.147036,83.048306 247.361266,82.741125 L247.739464,82.9704976 C247.126437,84.3321446 245.552672,87.5490355 245.552672,87.5490355 C245.12998,87.6252229 244.852305,87.6649376 244.633131,87.6649376 C241.111523,87.6649376 239.641577,86.2262928 235.16335,73.9585022 C230.868867,62.2232128 230.367075,61.466202 229.729329,60.8259037 L229.657644,60.8259037 L229.657644,82.4055763 C231.661517,82.4817637 233.044947,83.4632842 233.548387,83.4632842 C233.895275,83.4632842 234.16059,83.1585346 234.389651,82.8562166 L234.781032,83.1253039 L231.738969,87.7419355 C230.625798,87.1324364 229.464837,86.4921381 227.423887,86.4921381 C225.312075,86.4921381 223.921229,86.866591 222.770156,87.5490355 L222.580645,87.4007132 C223.765501,84.4837089 225.425782,82.6252229 228.696082,82.3609985 L228.696082,60.1053655 C228.274214,59.9173286 227.77407,59.6920084 227.077823,59.6920084 C225.771845,59.6920084 224.969307,60.0688929 224.155234,61.3486789 L223.576814,61.0147512 C225.045112,58.7048144 226.119557,56.9995137 226.885016,55.7132436 C227.463437,55.59491 228.428295,55.483871 229.085816,55.483871 C233.237754,55.483871 234.446504,56.3203112 238.628929,68.0166964 C243.220863,80.8923651 243.787748,81.5910196 244.548264,82.2134868 L244.633131,82.2134868 L244.633131,60.5924785 C242.395254,60.5924785 241.455115,59.7268601 240.741565,59.7268601 C240.280147,59.7268601 240.027191,59.9667693 239.782474,60.3363592 L239.27821,59.9546118 C240.314753,58.5881018 241.12965,57.4234074 242.318626,55.5284487 C243.123635,56.1638839 245.093726,56.8528124 246.395584,56.8528124 C248.327772,56.8528124 249.206938,56.5091587 250.206402,56.0139407 L250.322581,56.0941806 Z" id="Fill-50" fill="#FFFFFF"></path>
                <path d="M225.16129,71.1599396 C224.387317,72.5094475 223.312675,74.8215934 222.684906,76.1290323 C219.605533,76.1290323 218.065021,75.2026891 215.82818,75.2026891 C214.783275,75.2026891 214.509039,75.4336562 213.896138,76.0135487 L213.548387,75.8221759 C214.248019,74.4693685 215.245016,72.4294339 215.862047,71.0840504 C218.71757,71.0840504 220.99819,72.0458635 222.769159,72.0458635 C223.813239,72.0458635 224.272501,71.6985879 224.773891,70.9677419 L225.16129,71.1599396 Z" id="Fill-52" fill="#FFFFFF"></path>
                <path d="M262.580645,70.2152715 L255.035714,75.4834503 L255.035714,81.4944912 C255.035714,82.3147522 255.329548,82.9145943 256.522404,83.4580698 C257.445314,83.8820817 258.118187,84.0831508 258.68117,84.0831508 C259.422524,84.0831508 259.887563,83.8097304 260.727658,83.0651858 L261.093159,83.4950867 C259.422524,84.9883824 257.899204,86.3260388 256.301829,87.7419355 C254.440879,86.8038934 252.243094,85.6959101 249.677419,84.5567989 L249.677419,84.4785586 C250.084328,84.261505 250.277032,83.8585255 250.277032,82.8691645 L250.277032,69.0366195 C252.243094,67.9774312 255.843957,65.2272433 258.127742,63.2258065 C259.831025,65.9297232 261.169604,68.0211785 262.580645,70.2152715 L262.580645,70.2152715 Z M258.271076,72.2999963 C257.260573,70.4870092 256.26281,68.7985335 255.035714,66.8736543 L255.035714,66.9174016 L255.035714,74.5807426 L258.271076,72.2999963 Z" id="Fill-54" fill="#FFFFFF"></path>
            </g>
        </g>
    </g>
</svg>