<svg width="32" height="32" viewBox="0 0 32 32" fill="none" xmlns="http://www.w3.org/2000/svg">
<path fill-rule="evenodd" clip-rule="evenodd" d="M32 16C32 7.17789 24.8221 0 16 0C7.17789 0 0 7.17789 0 16C0 20.6598 2.00378 24.8599 5.19331 27.7865L5.17818 27.7999L5.69716 28.2374C5.71472 28.2522 5.73307 28.2656 5.75138 28.279L5.7514 28.279C5.76828 28.2914 5.78513 28.3037 5.80131 28.3171C6.07709 28.5457 6.36276 28.7628 6.65367 28.9728C6.74793 29.0409 6.84218 29.1089 6.93818 29.1753C7.24887 29.3894 7.56771 29.5924 7.89353 29.785C7.96451 29.8269 8.03607 29.8676 8.10764 29.9084C8.46429 30.1114 8.82851 30.3028 9.20146 30.4785C9.21513 30.4849 9.22895 30.4911 9.24276 30.4972C9.25658 30.5033 9.2704 30.5094 9.28407 30.5158C10.4995 31.0807 11.7969 31.4956 13.1537 31.7405L13.2608 31.7597C13.682 31.8324 14.1079 31.8906 14.5391 31.9296C14.5656 31.932 14.5921 31.9339 14.6186 31.9358L14.6187 31.9358C14.6337 31.9369 14.6488 31.938 14.664 31.9391C14.6749 31.94 14.6858 31.9409 14.6967 31.9418C15.1261 31.9773 15.5601 32 16 32C16.4358 32 16.8657 31.9773 17.2928 31.943C17.3199 31.9407 17.3469 31.9388 17.374 31.9369C17.401 31.935 17.4281 31.9331 17.4551 31.9308C17.8828 31.8918 18.3052 31.8353 18.7223 31.7638L18.7675 31.7558C18.7818 31.7532 18.796 31.7506 18.8102 31.748C18.8172 31.7467 18.8242 31.7453 18.8311 31.744C20.1676 31.5043 21.4464 31.0988 22.6461 30.5484C22.6565 30.5436 22.6669 30.5389 22.6774 30.5342C22.6854 30.5306 22.6934 30.527 22.7014 30.5234C22.7274 30.5118 22.7535 30.5001 22.7793 30.4879C23.1383 30.3191 23.4892 30.137 23.833 29.9433C23.9185 29.895 24.0035 29.8461 24.0884 29.7961C24.4015 29.6116 24.7092 29.4191 25.0083 29.2143C25.0946 29.1555 25.1794 29.0941 25.2645 29.0325L25.3277 28.9868C25.5831 28.8029 25.8339 28.6132 26.0777 28.4148C26.1019 28.3953 26.127 28.3769 26.1521 28.3585L26.1521 28.3584C26.1829 28.3358 26.2137 28.3133 26.2429 28.2886L26.7753 27.8441L26.7596 27.8307C29.977 24.903 32 20.6836 32 16ZM1.16364 15.9999C1.16364 7.81894 7.81905 1.16352 16 1.16352C24.1809 1.16352 30.8364 7.81894 30.8364 15.9999C30.8364 20.4083 28.9018 24.3717 25.8391 27.0911C25.6681 26.973 25.4959 26.8671 25.3196 26.7787L20.3933 24.3158C19.9511 24.0947 19.6765 23.6502 19.6765 23.1562V21.4358C19.7905 21.295 19.911 21.1356 20.0355 20.9605C20.6732 20.0598 21.1846 19.0579 21.5575 17.9798C22.2947 17.6296 22.7706 16.8953 22.7706 16.0662V14.0037C22.7706 13.4992 22.5856 13.0099 22.2545 12.6253V9.91C22.2848 9.60803 22.3919 7.90389 21.159 6.49821C20.0867 5.27407 18.3511 4.65443 16 4.65443C13.6489 4.65443 11.9133 5.27407 10.841 6.49763C9.60815 7.90331 9.7152 9.60745 9.74546 9.90941V12.6248C9.41498 13.0093 9.22938 13.4987 9.22938 14.0031V16.0656C9.22938 16.7062 9.5168 17.3037 10.009 17.7069C10.4803 19.553 11.4502 20.9506 11.8086 21.4242V23.108C11.8086 23.5827 11.5497 24.0191 11.1325 24.2472L6.53207 26.7565C6.38546 26.8362 6.24 26.9293 6.09455 27.0335C3.06967 24.3152 1.16364 20.3763 1.16364 15.9999ZM24.0827 28.4316C24.2927 28.2949 24.4998 28.1517 24.7035 28.004C24.7256 27.988 24.7479 27.9722 24.7702 27.9564C24.8112 27.9274 24.8522 27.8983 24.8925 27.8678C24.8617 27.8515 24.8309 27.8352 24.7995 27.8195L19.8732 25.3567C19.0342 24.9378 18.5129 24.0941 18.5129 23.1563V21.0041L18.6572 20.8395C18.7846 20.6934 18.933 20.5026 19.0854 20.2873C19.7056 19.4111 20.1944 18.4261 20.5376 17.3596L20.6307 17.0716L20.9199 16.9826C21.3248 16.8575 21.607 16.4811 21.607 16.0662V14.0037C21.607 13.7331 21.4918 13.4806 21.2829 13.2921L21.0909 13.1187L21.0962 9.80178L21.0962 9.8012C21.0999 9.76655 21.2504 8.35548 20.2741 7.25283C19.4304 6.30098 17.9933 5.81807 16 5.81807C13.9992 5.81807 12.5574 6.30505 11.7161 7.26389C10.7305 8.38738 10.9021 9.78665 10.9039 9.80062L10.9091 9.87683V13.1176L10.7171 13.2909C10.5077 13.48 10.3931 13.732 10.3931 14.0025V16.0651C10.3931 16.3915 10.5606 16.694 10.8405 16.8749L11.0389 17.0035L11.0918 17.2339C11.5672 19.3058 12.8251 20.836 12.8379 20.8505L12.9717 21.0123L12.9723 23.108C12.9723 24.0092 12.4806 24.8371 11.6893 25.2688L7.08891 27.7782L7.03305 27.8096C7.04614 27.8195 7.05894 27.8297 7.07174 27.8399C7.08454 27.8501 7.09734 27.8603 7.11044 27.8701C7.36411 28.0604 7.62476 28.2402 7.88891 28.413C7.97269 28.4677 8.05705 28.5218 8.142 28.5753C8.42883 28.7545 8.71974 28.9261 9.01705 29.085C9.04285 29.0989 9.06908 29.1123 9.09535 29.1256C9.11174 29.1339 9.12815 29.1422 9.14447 29.1507C9.47029 29.32 9.80018 29.4806 10.1365 29.6255L10.144 29.629C10.4995 29.7814 10.8614 29.9193 11.2274 30.0438C11.2501 30.0514 11.2733 30.0595 11.296 30.0671C12.0332 30.3144 12.7901 30.5035 13.5593 30.632L13.6082 30.6408C13.9718 30.7001 14.3389 30.7437 14.7078 30.7763C14.7552 30.7807 14.803 30.7841 14.8508 30.7875C14.8664 30.7886 14.8819 30.7897 14.8975 30.7909C15.2635 30.8182 15.6312 30.8363 16 30.8363C16.3648 30.8363 16.7279 30.8188 17.0892 30.7915C17.1544 30.7868 17.2189 30.7827 17.2835 30.7769C17.6489 30.7449 18.0131 30.7024 18.3744 30.6437C18.3849 30.6419 18.3954 30.6396 18.4059 30.6379C18.7899 30.5744 19.1715 30.4971 19.5485 30.404C19.5491 30.404 19.5497 30.4038 19.5503 30.4037C19.5509 30.4035 19.5515 30.4034 19.552 30.4034C19.9256 30.3109 20.295 30.2032 20.6598 30.0822C20.6741 30.0776 20.6883 30.0727 20.7023 30.0679C20.7128 30.0643 20.7233 30.0607 20.7337 30.0572C21.4301 29.8227 22.108 29.5341 22.7631 29.1984C22.7861 29.1866 22.8092 29.1749 22.8322 29.1633C22.8725 29.1428 22.9127 29.1224 22.9528 29.1013C23.2379 28.95 23.5171 28.7883 23.7917 28.6184C23.8798 28.5636 23.966 28.5075 24.0524 28.4513L24.0827 28.4316Z" fill="white"/>
</svg>
